<svg width="20" height="20" viewBox="0 0 20 20" fill="none" xmlns="http://www.w3.org/2000/svg">
<g clip-path="url(#clip0_46570_3)">
<path d="M10 0C4.486 0 0 4.486 0 10C0 15.514 4.486 20 10 20C15.514 20 20 15.514 20 10C20 4.486 15.514 0 10 0ZM10 18.1818C5.48855 18.1818 1.81818 14.5115 1.81818 10C1.81818 5.48855 5.48855 1.81818 10 1.81818C14.5115 1.81818 18.1818 5.48855 18.1818 10C18.1818 14.5115 14.5115 18.1818 10 18.1818Z" fill="#818181"/>
<path d="M12.4428 12.4428C11.0958 13.7897 8.90425 13.7897 7.55728 12.4428C7.20231 12.0878 6.62667 12.0878 6.27164 12.4428C5.91661 12.7978 5.91661 13.3734 6.27164 13.7285C7.2997 14.7565 8.64958 15.2703 10.0001 15.2703C11.3501 15.2703 12.7007 14.7563 13.7285 13.7285C14.0835 13.3735 14.0835 12.7978 13.7285 12.4428C13.3734 12.0877 12.7978 12.0878 12.4428 12.4428Z" fill="#818181"/>
<path d="M6.97815 8.9176C7.20421 8.69215 7.3333 8.37942 7.3333 8.06063C7.3333 7.74184 7.20421 7.42912 6.97815 7.20366C6.75269 6.97821 6.43997 6.84851 6.12118 6.84851C5.80172 6.84851 5.48966 6.97821 5.26415 7.20366C5.03815 7.42912 4.90906 7.74184 4.90906 8.06063C4.90906 8.37942 5.03815 8.69215 5.26415 8.9176C5.48966 9.14366 5.80239 9.27275 6.12118 9.27275C6.43997 9.27275 6.75269 9.14366 6.97815 8.9176Z" fill="#818181"/>
<path d="M13.8787 6.84851C13.56 6.84851 13.2472 6.97821 13.0217 7.20366C12.7963 7.42912 12.6666 7.74124 12.6666 8.06063C12.6666 8.38003 12.7963 8.69215 13.0217 8.9176C13.2472 9.14366 13.56 9.27275 13.8787 9.27275C14.1975 9.27275 14.5103 9.14366 14.7357 8.9176C14.9612 8.69215 15.0909 8.38003 15.0909 8.06063C15.0909 7.74184 14.9611 7.42912 14.7357 7.20366C14.5103 6.97821 14.1975 6.84851 13.8787 6.84851Z" fill="#818181"/>
</g>
<defs>
<clipPath id="clip0_46570_3">
<rect width="20" height="20" fill="white"/>
</clipPath>
</defs>
</svg>
